<?xml version="1.0" encoding="UTF-8"?><svg id="a" xmlns="http://www.w3.org/2000/svg" viewBox="0 0 1068.33 476.61"><polygon points="799.61 263.03 913.85 0 856.73 0 856.62 0 763.86 213.47 265 213.47 150.76 476.61 207.88 476.61 207.99 476.61 300.74 263.03 799.61 263.03"/><polygon points="1011.21 92.54 866.82 424.42 757.72 424.42 736.89 472.44 845.87 472.44 901.24 472.44 1068.33 92.54 1011.21 92.54"/><polyline points="0 383.96 55.26 383.96 222.35 4.06 165.23 4.06 0 383.96"/><polygon points="750.05 386.81 777.13 324.53 397.23 324.53 397.01 324.53 397.01 325.08 370.25 386.81 394.7 386.81 413.01 344.38 744.02 344.38 725.6 386.81 750.05 386.81"/><polygon points="672.42 152.29 672.42 151.63 699.18 90.01 674.73 90.01 656.31 132.45 325.3 132.45 343.72 90.01 319.27 90.01 292.3 152.29 672.09 152.29 672.42 152.29"/></svg>