<?xml version="1.0" encoding="utf-8"?>
<!-- Generator: Adobe Illustrator 27.1.1, SVG Export Plug-In . SVG Version: 6.00 Build 0)  -->
<svg version="1.1" id="a" xmlns="http://www.w3.org/2000/svg" xmlns:xlink="http://www.w3.org/1999/xlink" x="0px" y="0px"
	 viewBox="0 0 1068.3 476.6" style="enable-background:new 0 0 1068.3 476.6;" xml:space="preserve">
<style type="text/css">
	.st0{fill:#00FFDA;}
</style>
<polygon class="st0" points="799.6,263 913.8,0 856.7,0 856.6,0 763.9,213.5 265,213.5 150.8,476.6 207.9,476.6 208,476.6 
	300.7,263 "/>
<polygon class="st0" points="1011.2,92.5 866.8,424.4 757.7,424.4 736.9,472.4 845.9,472.4 901.2,472.4 1068.3,92.5 "/>
<polyline class="st0" points="0,384 55.3,384 222.4,4.1 165.2,4.1 0,384 "/>
<polygon class="st0" points="750,386.8 777.1,324.5 397.2,324.5 397,324.5 397,325.1 370.2,386.8 394.7,386.8 413,344.4 744,344.4 
	725.6,386.8 "/>
<polygon class="st0" points="672.4,152.3 672.4,151.6 699.2,90 674.7,90 656.3,132.4 325.3,132.4 343.7,90 319.3,90 292.3,152.3 
	672.1,152.3 "/>
</svg>
